<?xml version="1.0" encoding="UTF-8"?>
<svg width="16px" height="16px" viewBox="0 0 16 16" version="1.1" xmlns="http://www.w3.org/2000/svg" xmlns:xlink="http://www.w3.org/1999/xlink">
    <!-- Generator: Sketch 41.2 (35397) - http://www.bohemiancoding.com/sketch -->
    <title>bom2buy logo</title>
    <desc>Created with Sketch.</desc>
    <defs></defs>
    <g id="Page-1" stroke="none" stroke-width="1" fill="none" fill-rule="evenodd">
        <path d="M3.36809364,3.37025134 C3.57270142,3.57635958 -0.0514164314,3.57635958 0.154249294,3.37025134 C-0.0514164314,3.57635958 -0.0514164314,-0.0513150135 0.154249294,0.15394504 C-0.0514164314,-0.0513150135 3.57270142,-0.0513150135 3.36809364,0.15394504 C3.57270142,-0.0513150135 3.57270142,3.57635958 3.36809364,3.37025134 Z M7.51754777,3.37025134 C7.72215555,3.57635958 4.0980377,3.57635958 4.30370342,3.37025134 C4.0980377,3.57635958 4.0980377,-0.0513150135 4.30370342,0.15394504 C4.0980377,-0.0513150135 7.72215555,-0.0513150135 7.51754777,0.15394504 C7.72215555,-0.0513150135 7.72215555,3.57635958 7.51754777,3.37025134 Z M11.69709,3.37025134 C11.9016978,3.57635958 8.27757996,3.57635958 8.48324569,3.37025134 C8.27757996,3.57635958 8.27757996,-0.0513150135 8.48324569,0.15394504 C8.27757996,-0.0513150135 11.9016978,-0.0513150135 11.69709,0.15394504 C11.9016978,-0.0513150135 11.9016978,3.57635958 11.69709,3.37025134 Z M7.51754777,15.8454188 C7.72215555,16.0515271 4.0980377,16.0515271 4.30370342,15.8454188 C4.0980377,16.0515271 4.0980377,12.4238525 4.30370342,12.6291125 C4.0980377,12.4238525 7.72215555,12.4238525 7.51754777,12.6291125 C7.72215555,12.4238525 7.72215555,16.0515271 7.51754777,15.8454188 Z M11.69709,15.8454188 C11.9016978,16.0515271 8.27757996,16.0515271 8.48324569,15.8454188 C8.27757996,16.0515271 8.27757996,12.4238525 8.48324569,12.6291125 C8.27757996,12.4238525 11.9016978,12.4238525 11.69709,12.6291125 C11.9016978,12.4238525 11.9016978,16.0515271 11.69709,15.8454188 Z M11.69709,7.5587651 C11.9016978,7.76487334 8.27757996,7.76487334 8.48324569,7.5587651 C8.27757996,7.76487334 8.27757996,4.13719875 8.48324569,4.3424588 C8.27757996,4.13719875 11.9016978,4.13719875 11.69709,4.3424588 C11.9016978,4.13719875 11.9016978,7.76487334 11.69709,7.5587651 Z M3.36809364,7.5587651 C3.57270142,7.76487334 -0.0514164314,7.76487334 0.154249294,7.5587651 C-0.0514164314,7.76487334 -0.0514164314,4.13719875 0.154249294,4.3424588 C-0.0514164314,4.13719875 3.57270142,4.13719875 3.36809364,4.3424588 C3.57270142,4.13719875 3.57270142,7.76487334 3.36809364,7.5587651 Z M3.36809364,11.6569051 C3.57270142,11.8630133 -0.0514164314,11.8630133 0.154249294,11.6569051 C-0.0514164314,11.8630133 -0.0514164314,8.23533871 0.154249294,8.44059876 C-0.0514164314,8.23533871 3.57270142,8.23533871 3.36809364,8.44059876 C3.57270142,8.23533871 3.57270142,11.8630133 3.36809364,11.6569051 Z M15.8465442,7.5587651 C16.0511519,7.76487334 12.4270341,7.76487334 12.6326998,7.5587651 C12.4270341,7.76487334 12.4270341,4.13719875 12.6326998,4.3424588 C12.4270341,4.13719875 16.0511519,4.13719875 15.8465442,4.3424588 C16.0511519,4.13719875 16.0511519,7.76487334 15.8465442,7.5587651 Z M15.8465442,11.6569051 C16.0511519,11.8630133 12.4270341,11.8630133 12.6326998,11.6569051 C12.4270341,11.8630133 12.4270341,8.23533871 12.6326998,8.44059876 C12.4270341,8.23533871 16.0511519,8.23533871 15.8465442,8.44059876 C16.0511519,8.23533871 16.0511519,11.8630133 15.8465442,11.6569051 Z M15.8465442,15.8454188 C16.0511519,16.0515271 12.4270341,16.0515271 12.6326998,15.8454188 C12.4270341,16.0515271 12.4270341,12.4238525 12.6326998,12.6291125 C12.4270341,12.4238525 16.0511519,12.4238525 15.8465442,12.6291125 C16.0511519,12.4238525 16.0511519,16.0515271 15.8465442,15.8454188 Z M3.36809364,15.8454188 C3.57270142,16.0515271 -0.0514164314,16.0515271 0.154249294,15.8454188 C-0.0514164314,16.0515271 -0.0514164314,12.4238525 0.154249294,12.6291125 C-0.0514164314,12.4238525 3.57270142,12.4238525 3.36809364,12.6291125 C3.57270142,12.4238525 3.57270142,16.0515271 3.36809364,15.8454188 Z" id="bom2buy-logo" fill="#41D4FF"></path>
    </g>
</svg>/g>
    </g>
</svg>