<?xml version="1.0" encoding="UTF-8"?>
<svg width="16px" height="16px" viewBox="0 0 16 16" version="1.1" xmlns="http://www.w3.org/2000/svg" xmlns:xlink="http://www.w3.org/1999/xlink">
    <!-- Generator: Sketch 41.2 (35397) - http://www.bohemiancoding.com/sketch -->
    <title>bom2buy logo</title>
    <desc>Created with Sketch.</desc>
    <defs></defs>
    <g id="Page-1" stroke="none" stroke-width="1" fill="none" fill-rule="evenodd">
        <g id="与非主站-pc-1920px" transform="translate(-789.000000, -8.000000)" fill="#9B9B9B">
            <path d="M792.368094,11.3702513 C792.572701,11.5763596 788.948584,11.5763596 789.154249,11.3702513 C788.948584,11.5763596 788.948584,7.94868499 789.154249,8.15394504 C788.948584,7.94868499 792.572701,7.94868499 792.368094,8.15394504 C792.572701,7.94868499 792.572701,11.5763596 792.368094,11.3702513 Z M796.517548,11.3702513 C796.722156,11.5763596 793.098038,11.5763596 793.303703,11.3702513 C793.098038,11.5763596 793.098038,7.94868499 793.303703,8.15394504 C793.098038,7.94868499 796.722156,7.94868499 796.517548,8.15394504 C796.722156,7.94868499 796.722156,11.5763596 796.517548,11.3702513 Z M800.69709,11.3702513 C800.901698,11.5763596 797.27758,11.5763596 797.483246,11.3702513 C797.27758,11.5763596 797.27758,7.94868499 797.483246,8.15394504 C797.27758,7.94868499 800.901698,7.94868499 800.69709,8.15394504 C800.901698,7.94868499 800.901698,11.5763596 800.69709,11.3702513 Z M796.517548,23.8454188 C796.722156,24.0515271 793.098038,24.0515271 793.303703,23.8454188 C793.098038,24.0515271 793.098038,20.4238525 793.303703,20.6291125 C793.098038,20.4238525 796.722156,20.4238525 796.517548,20.6291125 C796.722156,20.4238525 796.722156,24.0515271 796.517548,23.8454188 Z M800.69709,23.8454188 C800.901698,24.0515271 797.27758,24.0515271 797.483246,23.8454188 C797.27758,24.0515271 797.27758,20.4238525 797.483246,20.6291125 C797.27758,20.4238525 800.901698,20.4238525 800.69709,20.6291125 C800.901698,20.4238525 800.901698,24.0515271 800.69709,23.8454188 Z M800.69709,15.5587651 C800.901698,15.7648733 797.27758,15.7648733 797.483246,15.5587651 C797.27758,15.7648733 797.27758,12.1371987 797.483246,12.3424588 C797.27758,12.1371987 800.901698,12.1371987 800.69709,12.3424588 C800.901698,12.1371987 800.901698,15.7648733 800.69709,15.5587651 Z M792.368094,15.5587651 C792.572701,15.7648733 788.948584,15.7648733 789.154249,15.5587651 C788.948584,15.7648733 788.948584,12.1371987 789.154249,12.3424588 C788.948584,12.1371987 792.572701,12.1371987 792.368094,12.3424588 C792.572701,12.1371987 792.572701,15.7648733 792.368094,15.5587651 Z M792.368094,19.6569051 C792.572701,19.8630133 788.948584,19.8630133 789.154249,19.6569051 C788.948584,19.8630133 788.948584,16.2353387 789.154249,16.4405988 C788.948584,16.2353387 792.572701,16.2353387 792.368094,16.4405988 C792.572701,16.2353387 792.572701,19.8630133 792.368094,19.6569051 Z M804.846544,15.5587651 C805.051152,15.7648733 801.427034,15.7648733 801.6327,15.5587651 C801.427034,15.7648733 801.427034,12.1371987 801.6327,12.3424588 C801.427034,12.1371987 805.051152,12.1371987 804.846544,12.3424588 C805.051152,12.1371987 805.051152,15.7648733 804.846544,15.5587651 Z M804.846544,19.6569051 C805.051152,19.8630133 801.427034,19.8630133 801.6327,19.6569051 C801.427034,19.8630133 801.427034,16.2353387 801.6327,16.4405988 C801.427034,16.2353387 805.051152,16.2353387 804.846544,16.4405988 C805.051152,16.2353387 805.051152,19.8630133 804.846544,19.6569051 Z M804.846544,23.8454188 C805.051152,24.0515271 801.427034,24.0515271 801.6327,23.8454188 C801.427034,24.0515271 801.427034,20.4238525 801.6327,20.6291125 C801.427034,20.4238525 805.051152,20.4238525 804.846544,20.6291125 C805.051152,20.4238525 805.051152,24.0515271 804.846544,23.8454188 Z M792.368094,23.8454188 C792.572701,24.0515271 788.948584,24.0515271 789.154249,23.8454188 C788.948584,24.0515271 788.948584,20.4238525 789.154249,20.6291125 C788.948584,20.4238525 792.572701,20.4238525 792.368094,20.6291125 C792.572701,20.4238525 792.572701,24.0515271 792.368094,23.8454188 Z" id="bom2buy-logo"></path>
        </g>
    </g>
</svg>