<?xml version="1.0" encoding="UTF-8"?>
<svg width="14px" height="16px" viewBox="0 0 14 16" version="1.1" xmlns="http://www.w3.org/2000/svg" xmlns:xlink="http://www.w3.org/1999/xlink">
    <!-- Generator: Sketch 41.2 (35397) - http://www.bohemiancoding.com/sketch -->
    <title>cirmall logo</title>
    <desc>Created with Sketch.</desc>
    <defs></defs>
    <g id="Page-1" stroke="none" stroke-width="1" fill="none" fill-rule="evenodd">
        <g id="cirmall-logo">
            <path d="M0.993881178,1.03036848 C-0.88267001,2.93237736 -0.0825674416,7.54959261 3.22999626,10.9074433 C3.65999251,11.342695 4.10658747,11.7374687 4.56260331,12.0933563 L4.68888808,11.6278599 C4.47579656,11.4393418 4.26629395,11.2412727 4.06015595,11.0329704 C1.25026392,8.18382297 0.512070043,4.31340318 1.87899605,2.92691966 C3.21967815,1.56772465 6.78010093,2.21468965 9.53212179,4.80391408 L10.2669511,4.89055509 C10.2669511,4.89055509 10.1530032,4.73387358 10.3124854,4.57150697 C10.5168289,4.36252249 10.8398308,4.02391761 11.2469477,3.56228705 C11.5273313,3.24460335 11.3602227,2.96535097 11.2343865,2.8641561 C9.3264324,1.32531175 7.5869327,0.566236473 5.73752264,0.181013727 C3.74904233,-0.233316759 1.94157766,0.0693582557 0.993881178,1.03036848" id="Fill-1" fill="#E62123"></path>
            <path d="M11.8745583,13.073514 C10.5343248,14.432709 6.97457498,13.7855166 4.22232981,11.1958373 L3.42850783,11.0960069 C3.42850783,11.0960069 3.60526164,11.2736096 3.45789203,11.4314281 C3.24883804,11.654739 2.91192913,12.0135829 2.50795248,12.4379192 C2.21500772,12.7444601 2.3940046,13.0339456 2.52028936,13.1362775 C4.4280192,14.6746671 6.1677432,15.4335149 8.01670465,15.8191925 C10.0058579,16.2332956 11.8128739,15.9303931 12.7607947,14.9691555" id="Fill-4" fill="#E62123"></path>
            <path d="M12.760862,14.9692465 C14.6376375,13.0670102 13.8983221,8.55258166 10.5864313,5.19541318 C10.157108,4.76016151 9.71006442,4.36470557 9.25359996,4.00904537 L9.06540651,4.37289212 C9.27849802,4.56072801 9.48844924,4.75834227 9.69413863,4.96664454 C12.5038064,7.81556458 13.2433461,11.6862118 11.8746256,13.0736049" id="Fill-6" fill="#E62123"></path>
            <path d="M10.008572,7.90472978 C9.95900017,9.72646497 8.46130327,11.1634322 6.66348379,11.1134033 C4.86409416,11.0633744 3.44849357,9.54863487 3.49627093,7.72621747 C3.54629136,5.90084381 5.04309104,4.46683281 6.84135913,4.51731654 C8.63873,4.56438922 10.0572466,6.08253978 10.008572,7.90472978" id="Fill-9" fill="#EC6700"></path>
            <path d="M8.46513892,5.91089507 L10.3966453,5.91089507 L10.3966453,5.62845903 L8.34984519,5.62845903 L7.17245849,6.82142156 L7.17245849,8.02120622 C7.05245432,8.07601064 6.96766632,8.19903632 6.96766632,8.34207357 C6.96766632,8.53673158 7.12288667,8.6938679 7.31444473,8.6938679 C7.50600279,8.6938679 7.66144744,8.53673158 7.66144744,8.34207357 C7.66144744,8.19630747 7.57486499,8.07146255 7.45127191,8.01847737 L7.45127191,6.93853474 L8.46513892,5.91089507 Z" id="Fill-11" fill="#DF3524"></path>
            <polygon id="Fill-13" fill="#DF3524" points="11.5453207 8.88575158 11.3486036 8.68563586 9.82690586 10.2290283 7.73322564 10.2290283 6.25167883 8.72702343 6.25167883 6.60261322 7.73322564 5.10220019 9.88477703 5.10220019 9.88477703 4.82044637 7.61681038 4.82044637 5.9728654 6.48663707 5.9728654 8.8439092 7.61681038 10.5107821 9.94219959 10.5107821"></polygon>
            <path d="M5.15096021,9.0940311 L5.15096021,7.42215529 C5.27253452,7.36803308 5.35799544,7.24478 5.35799544,7.10106053 C5.35799544,6.90662992 5.20232648,6.7490388 5.01054411,6.7490388 C4.81965898,6.7490388 4.66399001,6.90662992 4.66399001,7.10106053 C4.66399001,7.24546221 4.75012385,7.36826049 4.87259539,7.42261009 L4.87259539,9.21159908 L7.02908154,11.3978632 L10.0208864,11.3978632 L10.0208864,11.1156546 L7.14437527,11.1156546 L5.15096021,9.0940311 Z" id="Fill-15" fill="#DF3524"></path>
            <path d="M8.41843823,5.88588061 L10.3503932,5.88588061 L10.3503932,5.60321717 L8.30359312,5.60321717 L7.1257578,6.7964071 L7.1257578,7.99664656 C7.00552932,8.05122358 6.92141425,8.17402185 6.92141425,8.31705911 C6.92141425,8.5110349 7.07708321,8.66817122 7.26751973,8.66817122 C7.4593021,8.66817122 7.61497106,8.5110349 7.61497106,8.31705911 C7.61497106,8.17243002 7.52861292,8.04781251 7.40479553,7.9934629 L7.40479553,6.91397508 L8.41843823,5.88588061 Z" id="Fill-17" fill="#FFFAC8"></path>
            <polygon id="Fill-19" fill="#FFFAC8" points="11.4988668 8.86098726 11.3019253 8.66132635 9.78045191 10.2040366 7.68632307 10.2040366 6.20544918 8.70225911 6.20544918 6.57944073 7.68632307 5.07743587 9.83787447 5.07743587 9.83787447 4.79545464 7.57035643 4.79545464 5.92641145 6.46255497 5.92641145 8.81914488 7.57035643 10.4860178 9.89552133 10.4860178"></polygon>
            <path d="M5.10466327,9.06985803 L5.10466327,7.39798222 C5.2264619,7.34272299 5.3116985,7.21992472 5.3116985,7.07666006 C5.3116985,6.88200205 5.15602954,6.72372871 4.96469579,6.72372871 C4.77336204,6.72372871 4.61746877,6.88200205 4.61746877,7.07666006 C4.61746877,7.22083433 4.7033783,7.34454223 4.82540123,7.39798222 L4.82540123,9.18628899 L6.98278461,11.3732354 L9.97481381,11.3732354 L9.97481381,11.0903445 L7.09830264,11.0903445 L5.10466327,9.06985803 Z" id="Fill-21" fill="#FFFAC8"></path>
        </g>
    </g>
</svg>1,11.3732354 L9.97481381,11.3732354 L9.97481381,11.0903445 L7.09830264,11.0903445 L5.10466327,9.06985803 Z" id="Fill-21" fill="#C4C4C4"></path>
            </g>
        </g>
    </g>
</svg>