<?xml version="1.0" encoding="UTF-8"?>
<svg width="14px" height="16px" viewBox="0 0 14 16" version="1.1" xmlns="http://www.w3.org/2000/svg" xmlns:xlink="http://www.w3.org/1999/xlink">
    <!-- Generator: Sketch 41.2 (35397) - http://www.bohemiancoding.com/sketch -->
    <title>D5 logo</title>
    <desc>Created with Sketch.</desc>
    <defs>
        <path d="M3.35746879,0.239317739 C1.53036304,0.286974085 0.089411558,1.80731513 0.138652706,3.6332784 C0.190226329,5.45872366 1.71125947,6.89747912 3.53836522,6.84775076 C5.36676679,6.7985404 6.80642246,5.28027137 6.75718131,3.4540491 C6.70742183,1.65709404 5.235889,0.238281731 3.44947199,0.238281731 C3.41914981,0.238281731 3.3883093,0.238799735 3.35746879,0.239317739 Z" id="path-1"></path>
    </defs>
    <g id="Page-1" stroke="none" stroke-width="1" fill="none" fill-rule="evenodd">
        <g id="D5-logo">
            <path d="M10.4599892,11.1371322 C10.5390197,11.0618749 10.6175253,10.9853353 10.6954512,10.9075045 C14.0549933,7.54980406 14.8674722,2.93283651 12.9636539,1.03046769 C12.0018966,0.0693117033 10.1685709,-0.233461497 8.15097964,0.181200516 C6.27489191,0.566595317 4.51050383,1.32521183 2.57532672,2.86446001 C2.44729974,2.96598875 2.27832485,3.24441577 2.56210936,3.56221108 C2.97521667,4.02349343 3.30331822,4.3627859 3.51064937,4.57205942 C3.63777442,4.70012461 3.59299174,4.82401522 3.56819725,4.87091454 C3.4553675,4.97638259 3.34357033,5.08442483 3.23292929,5.19506255 C-0.12764947,8.55250394 -0.877410737,13.0671657 1.02640754,14.9695346 C1.98816491,15.9301725 3.82149059,16.2334638 5.83960016,15.8190607 C7.71516957,15.4341839 9.48007597,14.6753084 11.4147348,13.1360602 C11.5427617,13.0340135 11.7244357,12.7444494 11.4279521,12.4380502 C11.0174364,12.0140641 10.6761175,11.6553465 10.4641214,11.4315689 C10.3586071,11.3201001 10.4165252,11.1989933 10.4599892,11.1371322 Z M9.62522967,11.2547812 C9.70146595,11.1823783 9.77727679,11.1085398 9.85265005,11.0331204 C12.7034533,8.18435867 13.4526963,4.31331654 12.0651326,2.92636146 C10.7139309,1.57651935 7.1412211,2.20599587 4.35622986,4.75384161 C4.28298483,4.82357146 4.210193,4.89457412 4.13792976,4.96688189 C1.28712646,7.81616159 0.537365191,11.6866857 1.92544723,13.0731228 C3.27474371,14.4215756 6.84148826,13.7952923 9.62522967,11.2547812 Z" id="Combined-Shape" fill="#E62123"></path>
            <g id="Group-33" transform="translate(3.468016, 4.422566)">
                <path d="M0.138574957,3.6333302 C0.19014858,5.45877546 1.71118172,6.89753092 3.53854664,6.84780256 C5.36746653,6.7985922 6.80634471,5.28006416 6.75736272,3.4541009 C6.70682576,1.62606561 5.18527429,0.189641178 3.35739104,0.239369539 C1.53054446,0.286766884 0.0893338088,1.80736693 0.138574957,3.6333302" id="Fill-7" fill="#005599"></path>
                <mask id="mask-2" fill="white">
                    <use xlink:href="#path-1"></use>
                </mask>
                <g id="Clip-11"></g>
                <polygon id="Fill-10" fill="#00A2DF" mask="url(#mask-2)" points="5.33799959 5.07481812 7.08891115 5.07481812 7.08891115 4.56490817 5.33799959 4.56490817"></polygon>
                <polygon id="Fill-12" fill="#00A2DF" mask="url(#mask-2)" points="5.33799959 4.3014385 7.08891115 4.3014385 7.08891115 3.79152855 5.33799959 3.79152855"></polygon>
                <polygon id="Fill-13" fill="#00A2DF" mask="url(#mask-2)" points="5.33799959 5.84690273 7.08891115 5.84690273 7.08891115 5.33699278 5.33799959 5.33699278"></polygon>
                <polygon id="Fill-14" fill="#00A2DF" mask="url(#mask-2)" points="5.33799959 3.52831789 7.08891115 3.52831789 7.08891115 3.01840793 5.33799959 3.01840793"></polygon>
                <polygon id="Fill-15" fill="#00A2DF" mask="url(#mask-2)" points="5.33799959 2.75545627 7.08891115 2.75545627 7.08891115 2.24554632 5.33799959 2.24554632"></polygon>
                <polygon id="Fill-16" fill="#00A2DF" mask="url(#mask-2)" points="5.33799959 1.98311266 7.08891115 1.98311266 7.08891115 1.4732027 5.33799959 1.4732027"></polygon>
                <polygon id="Fill-17" fill="#00A2DF" mask="url(#mask-2)" points="4.90778746 1.30640549 5.40760362 1.30640549 5.40760362 -0.44315222 4.90778746 -0.44315222"></polygon>
                <polygon id="Fill-18" fill="#00A2DF" mask="url(#mask-2)" points="4.13366478 1.30640549 4.63348095 1.30640549 4.63348095 -0.44315222 4.13366478 -0.44315222"></polygon>
                <polygon id="Fill-19" fill="#00A2DF" mask="url(#mask-2)" points="3.3603196 1.30640549 3.86013576 1.30640549 3.86013576 -0.44315222 3.3603196 -0.44315222"></polygon>
                <polygon id="Fill-20" fill="#00A2DF" mask="url(#mask-2)" points="2.58697441 1.30640549 3.08679057 1.30640549 3.08679057 -0.44315222 2.58697441 -0.44315222"></polygon>
                <polygon id="Fill-21" fill="#00A2DF" mask="url(#mask-2)" points="1.81388839 1.30640549 2.31370455 1.30640549 2.31370455 -0.44315222 1.81388839 -0.44315222"></polygon>
                <polygon id="Fill-22" fill="#00A2DF" mask="url(#mask-2)" points="4.90778746 7.56777599 5.40760362 7.56777599 5.40760362 5.81795927 4.90778746 5.81795927"></polygon>
                <polygon id="Fill-23" fill="#00A2DF" mask="url(#mask-2)" points="4.13366478 7.56777599 4.63348095 7.56777599 4.63348095 5.81795927 4.13366478 5.81795927"></polygon>
                <polygon id="Fill-24" fill="#00A2DF" mask="url(#mask-2)" points="3.3603196 7.56777599 3.86013576 7.56777599 3.86013576 5.81795927 3.3603196 5.81795927"></polygon>
                <polygon id="Fill-25" fill="#00A2DF" mask="url(#mask-2)" points="2.58697441 7.56777599 3.08679057 7.56777599 3.08679057 5.81795927 2.58697441 5.81795927"></polygon>
                <polygon id="Fill-26" fill="#00A2DF" mask="url(#mask-2)" points="1.81388839 7.56777599 2.31370455 7.56777599 2.31370455 5.81795927 1.81388839 5.81795927"></polygon>
                <polygon id="Fill-27" fill="#00A2DF" mask="url(#mask-2)" points="-0.0497594758 5.07481812 1.70115208 5.07481812 1.70115208 4.56490817 -0.0497594758 4.56490817"></polygon>
                <polygon id="Fill-28" fill="#00A2DF" mask="url(#mask-2)" points="-0.0497594758 4.3014385 1.70115208 4.3014385 1.70115208 3.79152855 -0.0497594758 3.79152855"></polygon>
                <polygon id="Fill-29" fill="#00A2DF" mask="url(#mask-2)" points="-0.0497594758 5.84690273 1.70115208 5.84690273 1.70115208 5.33699278 -0.0497594758 5.33699278"></polygon>
                <polygon id="Fill-30" fill="#00A2DF" mask="url(#mask-2)" points="-0.0497594758 3.52831789 1.70115208 3.52831789 1.70115208 3.01840793 -0.0497594758 3.01840793"></polygon>
                <polygon id="Fill-31" fill="#00A2DF" mask="url(#mask-2)" points="-0.0497594758 2.75545627 1.70115208 2.75545627 1.70115208 2.24554632 -0.0497594758 2.24554632"></polygon>
                <polygon id="Fill-32" fill="#00A2DF" mask="url(#mask-2)" points="-0.0497594758 1.98311266 1.70115208 1.98311266 1.70115208 1.4732027 -0.0497594758 1.4732027"></polygon>
            </g>
        </g>
    </g>
</svg>