<?xml version="1.0" encoding="UTF-8"?>
<svg width="16px" height="16px" viewBox="0 0 16 16" version="1.1" xmlns="http://www.w3.org/2000/svg" xmlns:xlink="http://www.w3.org/1999/xlink">
    <!-- Generator: Sketch 41.2 (35397) - http://www.bohemiancoding.com/sketch -->
    <title>eeboard logo</title>
    <desc>Created with Sketch.</desc>
    <defs></defs>
    <g id="Page-1" stroke="none" stroke-width="1" fill="none" fill-rule="evenodd">
        <g id="eeboard-logo">
            <polygon id="Fill-1" fill="#231814" points="14.1398535 6.35467732 9.64487524 14.1404989 1.86110489 9.64465107 6.35537324 1.86060441"></polygon>
            <polygon id="Fill-2" fill="#3E3A39" points="14.1398535 6.35467732 9.64487524 14.1404989 8.07449034 13.2331647"></polygon>
            <polygon id="Fill-3" fill="#0E357F" points="15.9752231 5.84825991 10.1278112 0.000640398907 5.84971924 -6.95652174e-05"></polygon>
            <polygon id="Fill-4" fill="#005EAC" points="8.473689 1.51573934 10.1278467 0.000675897113 5.84939977 -3.40670112e-05"></polygon>
            <polygon id="Fill-5" fill="#0E357F" points="5.87286325 15.9992205 10.1506002 15.9999304 0.0254513104 10.150891"></polygon>
            <polygon id="Fill-6" fill="#0E357F" points="10.1512392 15.9752592 15.9993611 10.1283496 15.9993611 5.84833091"></polygon>
            <polygon id="Fill-7" fill="#0E357F" points="0.00159736258 5.87254068 0.00159736258 10.1511395 5.84971924 0.0242112078"></polygon>
            <polygon id="Fill-8" fill="#295FAB" points="0 10.1510685 1.51536463 7.52739606 0.00177484731 5.87246969"></polygon>
            <polygon id="Fill-9" fill="#295FAB" points="0 10.1510685 1.51536463 7.5266861 0.000709938923 5.87246969"></polygon>
            <polygon id="Fill-10" fill="#005EAC" points="5.87222431 15.9992205 10.1513812 15.9999304 7.5274469 14.483802"></polygon>
            <polygon id="Fill-11" fill="#005EAC" points="0 10.1510685 1.51536463 7.5266861 0.00177484731 5.87246969"></polygon>
            <polygon id="Fill-12" fill="#005EAC" points="14.4839254 8.47250031 15.9978702 10.1267167 16 5.84811792"></polygon>
            <polygon id="Fill-13" fill="#717071" points="1.8609984 9.64450908 6.35526675 1.86046242 9.77007297 3.83238778"></polygon>
        </g>
    </g>
</svg>