<?xml version="1.0" encoding="UTF-8"?>
<svg width="16px" height="16px" viewBox="0 0 16 16" version="1.1" xmlns="http://www.w3.org/2000/svg" xmlns:xlink="http://www.w3.org/1999/xlink">
    <!-- Generator: Sketch 41.2 (35397) - http://www.bohemiancoding.com/sketch -->
    <title>eefocus logo</title>
    <desc>Created with Sketch.</desc>
    <defs></defs>
    <g id="Page-1" stroke="none" stroke-width="1" fill="none" fill-rule="evenodd">
        <g id="与非主站-pc-1920px" transform="translate(-385.000000, -8.000000)" fill="#9B9B9B">
            <g id="eefocus-logo" transform="translate(385.000000, 8.000000)">
                <path d="M9.69735639,8.0406306 C9.67598662,8.95229404 8.92311311,9.67335437 8.01024027,9.65418451 C7.09928524,9.63474081 6.37682256,8.87917474 6.3965485,7.96860672 C6.41627445,7.05694328 7.17325753,6.33588295 8.08202079,6.35450509 C8.99434568,6.37559193 9.71653439,7.13006258 9.69735639,8.0406306" id="Fill-4"></path>
                <path d="M11.6932931,12.6159268 C11.3253495,13.1310481 10.6067224,13.2515444 10.0908342,12.8826616 C9.5735761,12.5124096 9.45385058,11.7995649 9.82206819,11.2814312 C10.1916557,10.7652144 10.908091,10.646909 11.4248011,11.013601 C11.9412373,11.3827576 12.0615107,12.0977931 11.6932931,12.6159268" id="Fill-6"></path>
                <path d="M12.9373974,5.78239452 C12.5801387,6.30655307 11.867265,6.4434806 11.3417878,6.08856446 C10.8141188,5.7325529 10.6760372,5.0210775 11.0332959,4.4947281 C11.3908286,3.96947413 12.1039763,3.83254661 12.6294535,4.18937973 C13.1546568,4.5434743 13.2913685,5.25686669 12.9373974,5.78239452" id="Fill-8"></path>
                <path d="M6.09693334,4.81292028 C5.70789389,5.31489657 4.98707504,5.40828114 4.48214568,5.02105011 C3.98159986,4.63354523 3.88927149,3.9124849 4.27611916,3.4105086 C4.66351477,2.90771074 5.38570348,2.81405232 5.88789313,3.20347419 C6.39145263,3.58906209 6.48432895,4.3120394 6.09693334,4.81292028" id="Fill-10"></path>
                <path d="M5.07543083,11.3961491 C4.67406267,11.8858019 3.94995616,11.9578258 3.46009523,11.5541634 C2.96941238,11.1515965 2.89845378,10.4286192 3.30009591,9.93704939 C3.70475172,9.44821814 4.42831029,9.37811124 4.91817122,9.78095201 C5.41077187,10.1821497 5.48008664,10.9073178 5.07543083,11.3961491" id="Fill-12"></path>
                <path d="M12.6139193,8.08099683 L12.6139193,8.08099683 C12.6122755,8.08318767 12.5580292,8.16123636 12.5292622,8.21107798 C12.4259749,8.36498451 12.310633,8.6440428 12.41529,8.92775663 C12.4193996,8.93788926 12.4210434,8.94391407 12.4243311,8.95240358 C13.4873403,11.2084214 13.6246,13.1979783 12.5966591,13.9634032 C11.610088,14.6995255 9.81201344,14.1255254 7.96270623,12.6551976 C7.95585694,12.6494467 7.80626854,12.548668 7.79202202,12.5396308 C7.63750213,12.4363874 7.35832524,12.3095926 7.0747648,12.4150268 C7.06407991,12.4191346 7.05860048,12.4213254 7.05038134,12.424064 C4.79340463,13.4868954 2.80272816,13.6238229 2.03725196,12.5965926 C1.29533731,11.6019511 1.89095121,9.77643341 3.38765718,7.91284983 L3.38765718,7.91394525 C3.39505441,7.90490804 3.4460131,7.82850248 3.48464307,7.77290991 C3.58765633,7.61900337 3.71203936,7.35418554 3.60628639,7.07101943 C3.60217682,7.06088679 3.6013549,7.05513584 3.59724533,7.04692018 C2.53505806,4.79035462 2.39916823,2.80216701 3.42738304,2.03537288 C4.42600893,1.29130873 6.26435728,1.89461139 8.13695206,3.40656509 C8.13695206,3.40656509 8.18571898,3.44298781 8.21202024,3.4643485 C8.36736204,3.56786571 8.64160745,3.68644494 8.92516789,3.5807369 C8.93585278,3.57690293 8.94160618,3.57580751 8.94955135,3.5727951 C11.2062541,2.50996367 13.1966566,2.37331001 13.9629547,3.40026642 C14.7045954,4.39408638 14.1100774,6.21823482 12.6139193,8.08099683 M15.7026733,3.18748105 C14.8262387,1.77904456 12.1988526,1.74070486 9.17996133,2.8832281 C8.91831861,2.9837329 8.7303742,3.05849533 8.57968991,3.12175584 C8.4473617,3.17515758 8.35010184,3.16201253 8.28517061,3.12531596 C8.15585609,3.05274437 8.13530824,2.90568421 8.13530824,2.87939413 C8.13476029,2.85365175 8.13476029,2.85693802 8.13476029,2.85693802 C8.13421235,2.65894082 8.13393838,2.44615545 8.13311646,2.28595025 C8.13147264,1.82067053 7.89147366,1.64321246 7.87421345,1.62869814 C6.08682379,0.170693891 4.3399819,-0.403032425 3.21423326,0.297488776 C1.80519815,1.17245564 1.76547229,3.79872551 2.90848114,6.81660809 C3.02628885,7.12195647 3.10848029,7.32789546 3.178343,7.49001765 C3.22135652,7.61270471 3.18272654,7.69979061 3.14628834,7.75866944 C3.08300094,7.86218665 2.96217954,7.88436891 2.89615242,7.88957215 L2.83149516,7.88957215 L2.79094739,7.88957215 C2.61313992,7.89066757 2.42957906,7.89176299 2.28766186,7.89176299 C1.82191041,7.89367998 1.643555,8.13275543 1.62958246,8.1500083 C0.171506466,9.93773403 -0.403285612,11.6849292 0.297259356,12.8096519 C1.17369399,14.2180884 3.80053214,14.2567019 6.82079327,13.113631 C7.03175128,13.0317483 7.197504,12.9676662 7.33558561,12.9131691 C7.69366628,12.7965068 7.85613134,13.0517397 7.86626828,13.1870241 C7.87832303,13.374341 7.8901038,13.5679565 7.89065174,13.7139212 C7.89256954,14.1797487 8.13256852,14.3569329 8.14900681,14.3711733 C9.93721839,15.8291776 11.6843342,16.4031778 12.8100829,15.7023827 C14.2185701,14.8274158 14.2572,12.201146 13.1139172,9.1813464 C13.029808,8.96363164 12.9613151,8.79603235 12.9018633,8.65910483 C12.7426859,8.26557513 13.0667941,8.10947775 13.1591225,8.10756077 C13.3517244,8.1067392 13.5566551,8.10564378 13.7125448,8.10454836 C14.1785702,8.10235752 14.3566517,7.86328207 14.3703502,7.8460292 C15.8284262,6.05912504 16.4032183,4.31192986 15.7026733,3.18748105" id="Fill-1"></path>
            </g>
        </g>
    </g>
</svg>