<?xml version="1.0" encoding="UTF-8"?>
<svg width="14px" height="16px" viewBox="0 0 14 16" version="1.1" xmlns="http://www.w3.org/2000/svg" xmlns:xlink="http://www.w3.org/1999/xlink">
    <!-- Generator: Sketch 41.2 (35397) - http://www.bohemiancoding.com/sketch -->
    <title>yinglai logo</title>
    <desc>Created with Sketch.</desc>
    <defs></defs>
    <g id="Page-1" stroke="none" stroke-width="1" fill="none" fill-rule="evenodd">
        <g id="与非主站-pc-1920px" transform="translate(-887.000000, -8.000000)" fill="#9B9B9B">
            <path d="M889.836696,14.4711569 L889.836696,11.1653657 L898.748774,13.4786749 C899.505381,13.6751392 900.283214,13.2400186 900.485891,12.5069659 C900.688568,11.7736544 900.239211,11.0201529 899.482862,10.8236886 L888.785522,8.04678573 C888.359719,7.93625836 887.904927,8.02400725 887.554708,8.28414776 C887.205265,8.54428827 887,8.94731192 887,9.37440828 L887,22.6257846 C887,23.052881 887.205265,23.4559046 887.554708,23.7160451 C887.805271,23.9021556 888.109674,24.0002583 888.418478,23.9999995 C888.541171,23.9999995 888.66464,23.9844687 888.785522,23.9531483 L899.482862,21.1762454 C900.239211,20.98004 900.688568,20.2265385 900.485891,19.493227 C900.282956,18.7599155 899.505381,18.3250537 898.748774,18.5212592 L889.836696,20.8348272 L889.836696,17.2198456 L899.354474,17.2198456 C900.137743,17.2198456 900.772693,16.604568 900.772693,15.8456307 C900.772693,15.0866934 900.137743,14.4711569 899.354474,14.4711569 L889.836696,14.4711569 Z" id="yinglai-logo"></path>
        </g>
    </g>
</svg>