<?xml version="1.0" encoding="UTF-8"?>
<svg width="14px" height="16px" viewBox="0 0 14 16" version="1.1" xmlns="http://www.w3.org/2000/svg" xmlns:xlink="http://www.w3.org/1999/xlink">
    <!-- Generator: Sketch 41.2 (35397) - http://www.bohemiancoding.com/sketch -->
    <title>yinglai logo</title>
    <desc>Created with Sketch.</desc>
    <defs></defs>
    <g id="Page-1" stroke="none" stroke-width="1" fill="none" fill-rule="evenodd">
        <path d="M2.83669635,6.47115693 L2.83669635,3.16536567 L11.7487737,5.47867485 C12.5053814,5.67513918 13.2832144,5.24001859 13.485891,4.50696593 C13.6885677,3.77365443 13.2392105,3.02015291 12.4828617,2.82368859 L1.78552162,0.0467857251 C1.35971949,-0.0637416353 0.904926586,0.0240072527 0.554707572,0.284147761 C0.205265098,0.54428827 0,0.947311924 0,1.37440828 L0,14.6257846 C0,15.052881 0.205265098,15.4559046 0.554707572,15.7160451 C0.805270769,15.9021556 1.10967399,16.0002583 1.4184776,15.9999995 C1.54117074,15.9999995 1.66464041,15.9844687 1.78552162,15.9531483 L12.4828617,13.1762454 C13.2392105,12.98004 13.6885677,12.2265385 13.485891,11.493227 C13.2829556,10.7599155 12.5053814,10.3250537 11.7487737,10.5212592 L2.83669635,12.8348272 L2.83669635,9.21984555 L12.354474,9.21984555 C13.1377428,9.21984555 13.7726927,8.60456795 13.7726927,7.84563067 C13.7726927,7.08669338 13.1377428,6.47115693 12.354474,6.47115693 L2.83669635,6.47115693 Z" id="yinglai-logo" fill="#04508C"></path>
    </g>
</svg>